<svg xmlns="http://www.w3.org/2000/svg" xmlns:xlink="http://www.w3.org/1999/xlink" width="500" zoomAndPan="magnify" viewBox="0 0 375 374.999991" height="500" preserveAspectRatio="xMidYMid meet" version="1.0"><defs><g/><clipPath id="924e8263d5"><path d="M 18.226562 153.289062 L 86.652344 153.289062 L 86.652344 221.710938 L 18.226562 221.710938 Z M 18.226562 153.289062 " clip-rule="nonzero"/></clipPath><clipPath id="dcbd7f7389"><path d="M 52.4375 153.289062 C 33.542969 153.289062 18.226562 168.605469 18.226562 187.5 C 18.226562 206.394531 33.542969 221.710938 52.4375 221.710938 C 71.335938 221.710938 86.652344 206.394531 86.652344 187.5 C 86.652344 168.605469 71.335938 153.289062 52.4375 153.289062 Z M 52.4375 153.289062 " clip-rule="nonzero"/></clipPath><linearGradient x1="-0.0000017938" gradientTransform="matrix(0.267284, 0, 0, 0.267284, 18.226875, 153.287626)" y1="0" x2="255.999976" gradientUnits="userSpaceOnUse" y2="0" id="c1648b18ad"><stop stop-opacity="1" stop-color="rgb(36.499023%, 74.099731%, 36.898804%)" offset="0"/><stop stop-opacity="1" stop-color="rgb(36.314392%, 73.942566%, 36.938477%)" offset="0.015625"/><stop stop-opacity="1" stop-color="rgb(35.945129%, 73.629761%, 37.019348%)" offset="0.03125"/><stop stop-opacity="1" stop-color="rgb(35.577393%, 73.316956%, 37.098694%)" offset="0.046875"/><stop stop-opacity="1" stop-color="rgb(35.20813%, 73.00415%, 37.17804%)" offset="0.0625"/><stop stop-opacity="1" stop-color="rgb(34.838867%, 72.692871%, 37.257385%)" offset="0.078125"/><stop stop-opacity="1" stop-color="rgb(34.47113%, 72.380066%, 37.336731%)" offset="0.09375"/><stop stop-opacity="1" stop-color="rgb(34.101868%, 72.067261%, 37.417603%)" offset="0.109375"/><stop stop-opacity="1" stop-color="rgb(33.732605%, 71.754456%, 37.496948%)" offset="0.125"/><stop stop-opacity="1" stop-color="rgb(33.364868%, 71.44165%, 37.576294%)" offset="0.140625"/><stop stop-opacity="1" stop-color="rgb(32.995605%, 71.130371%, 37.65564%)" offset="0.15625"/><stop stop-opacity="1" stop-color="rgb(32.627869%, 70.817566%, 37.736511%)" offset="0.171875"/><stop stop-opacity="1" stop-color="rgb(32.258606%, 70.504761%, 37.815857%)" offset="0.1875"/><stop stop-opacity="1" stop-color="rgb(31.889343%, 70.191956%, 37.895203%)" offset="0.203125"/><stop stop-opacity="1" stop-color="rgb(31.521606%, 69.87915%, 37.974548%)" offset="0.21875"/><stop stop-opacity="1" stop-color="rgb(31.152344%, 69.567871%, 38.053894%)" offset="0.234375"/><stop stop-opacity="1" stop-color="rgb(30.783081%, 69.255066%, 38.134766%)" offset="0.25"/><stop stop-opacity="1" stop-color="rgb(30.415344%, 68.942261%, 38.214111%)" offset="0.265625"/><stop stop-opacity="1" stop-color="rgb(30.046082%, 68.629456%, 38.293457%)" offset="0.28125"/><stop stop-opacity="1" stop-color="rgb(29.676819%, 68.31665%, 38.372803%)" offset="0.296875"/><stop stop-opacity="1" stop-color="rgb(29.309082%, 68.005371%, 38.453674%)" offset="0.3125"/><stop stop-opacity="1" stop-color="rgb(28.939819%, 67.692566%, 38.53302%)" offset="0.328125"/><stop stop-opacity="1" stop-color="rgb(28.570557%, 67.379761%, 38.612366%)" offset="0.34375"/><stop stop-opacity="1" stop-color="rgb(28.20282%, 67.066956%, 38.691711%)" offset="0.359375"/><stop stop-opacity="1" stop-color="rgb(27.833557%, 66.75415%, 38.771057%)" offset="0.375"/><stop stop-opacity="1" stop-color="rgb(27.464294%, 66.442871%, 38.851929%)" offset="0.390625"/><stop stop-opacity="1" stop-color="rgb(27.096558%, 66.130066%, 38.931274%)" offset="0.40625"/><stop stop-opacity="1" stop-color="rgb(26.727295%, 65.817261%, 39.01062%)" offset="0.421875"/><stop stop-opacity="1" stop-color="rgb(26.358032%, 65.504456%, 39.089966%)" offset="0.4375"/><stop stop-opacity="1" stop-color="rgb(25.990295%, 65.19165%, 39.170837%)" offset="0.453125"/><stop stop-opacity="1" stop-color="rgb(25.621033%, 64.880371%, 39.250183%)" offset="0.46875"/><stop stop-opacity="1" stop-color="rgb(25.25177%, 64.567566%, 39.329529%)" offset="0.484375"/><stop stop-opacity="1" stop-color="rgb(24.884033%, 64.254761%, 39.408875%)" offset="0.5"/><stop stop-opacity="1" stop-color="rgb(24.514771%, 63.941956%, 39.48822%)" offset="0.515625"/><stop stop-opacity="1" stop-color="rgb(24.145508%, 63.62915%, 39.569092%)" offset="0.53125"/><stop stop-opacity="1" stop-color="rgb(23.777771%, 63.317871%, 39.648438%)" offset="0.546875"/><stop stop-opacity="1" stop-color="rgb(23.408508%, 63.005066%, 39.727783%)" offset="0.5625"/><stop stop-opacity="1" stop-color="rgb(23.039246%, 62.692261%, 39.807129%)" offset="0.578125"/><stop stop-opacity="1" stop-color="rgb(22.671509%, 62.379456%, 39.888%)" offset="0.59375"/><stop stop-opacity="1" stop-color="rgb(22.302246%, 62.06665%, 39.967346%)" offset="0.609375"/><stop stop-opacity="1" stop-color="rgb(21.932983%, 61.755371%, 40.046692%)" offset="0.625"/><stop stop-opacity="1" stop-color="rgb(21.565247%, 61.442566%, 40.126038%)" offset="0.640625"/><stop stop-opacity="1" stop-color="rgb(21.195984%, 61.129761%, 40.205383%)" offset="0.65625"/><stop stop-opacity="1" stop-color="rgb(20.826721%, 60.816956%, 40.286255%)" offset="0.671875"/><stop stop-opacity="1" stop-color="rgb(20.458984%, 60.50415%, 40.365601%)" offset="0.6875"/><stop stop-opacity="1" stop-color="rgb(20.089722%, 60.192871%, 40.444946%)" offset="0.703125"/><stop stop-opacity="1" stop-color="rgb(19.720459%, 59.880066%, 40.524292%)" offset="0.71875"/><stop stop-opacity="1" stop-color="rgb(19.352722%, 59.567261%, 40.605164%)" offset="0.734375"/><stop stop-opacity="1" stop-color="rgb(18.983459%, 59.254456%, 40.684509%)" offset="0.75"/><stop stop-opacity="1" stop-color="rgb(18.614197%, 58.94165%, 40.763855%)" offset="0.765625"/><stop stop-opacity="1" stop-color="rgb(18.24646%, 58.630371%, 40.843201%)" offset="0.78125"/><stop stop-opacity="1" stop-color="rgb(17.877197%, 58.317566%, 40.922546%)" offset="0.796875"/><stop stop-opacity="1" stop-color="rgb(17.507935%, 58.004761%, 41.003418%)" offset="0.8125"/><stop stop-opacity="1" stop-color="rgb(17.140198%, 57.691956%, 41.082764%)" offset="0.828125"/><stop stop-opacity="1" stop-color="rgb(16.770935%, 57.37915%, 41.162109%)" offset="0.84375"/><stop stop-opacity="1" stop-color="rgb(16.401672%, 57.067871%, 41.241455%)" offset="0.859375"/><stop stop-opacity="1" stop-color="rgb(16.033936%, 56.755066%, 41.322327%)" offset="0.875"/><stop stop-opacity="1" stop-color="rgb(15.664673%, 56.442261%, 41.401672%)" offset="0.890625"/><stop stop-opacity="1" stop-color="rgb(15.29541%, 56.129456%, 41.481018%)" offset="0.90625"/><stop stop-opacity="1" stop-color="rgb(14.927673%, 55.81665%, 41.560364%)" offset="0.921875"/><stop stop-opacity="1" stop-color="rgb(14.558411%, 55.505371%, 41.639709%)" offset="0.9375"/><stop stop-opacity="1" stop-color="rgb(14.189148%, 55.192566%, 41.720581%)" offset="0.953125"/><stop stop-opacity="1" stop-color="rgb(13.821411%, 54.879761%, 41.799927%)" offset="0.96875"/><stop stop-opacity="1" stop-color="rgb(13.452148%, 54.566956%, 41.879272%)" offset="0.984375"/><stop stop-opacity="1" stop-color="rgb(13.082886%, 54.25415%, 41.958618%)" offset="1"/></linearGradient></defs><g clip-path="url(#924e8263d5)"><g clip-path="url(#dcbd7f7389)"><path fill="url(#c1648b18ad)" d="M 18.226562 153.289062 L 18.226562 221.710938 L 86.652344 221.710938 L 86.652344 153.289062 Z M 18.226562 153.289062 " fill-rule="nonzero"/></g></g><path fill="#ffffff" d="M 60.484375 184.652344 C 58.636719 182.800781 56.589844 180.757812 54.742188 178.90625 C 50.820312 174.988281 43.691406 175.441406 38.847656 180.285156 C 34.980469 184.152344 30.234375 188.898438 26.367188 192.769531 C 21.523438 197.609375 21.070312 204.742188 24.988281 208.660156 C 26.839844 210.511719 28.882812 212.554688 30.734375 214.402344 C 34.652344 218.324219 41.78125 217.871094 46.625 213.027344 C 49.371094 210.285156 52.558594 207.09375 55.5625 204.09375 C 56.335938 203.316406 56.335938 202.054688 55.5625 201.28125 C 54.785156 200.503906 53.523438 200.503906 52.75 201.28125 C 49.746094 204.28125 46.558594 207.472656 43.8125 210.214844 C 40.667969 213.359375 36.089844 214.136719 33.546875 211.59375 C 33.546875 211.59375 27.800781 205.847656 27.800781 205.847656 C 25.253906 203.300781 26.03125 198.722656 29.175781 195.578125 C 33.046875 191.714844 37.792969 186.964844 41.660156 183.097656 C 44.804688 179.953125 49.382812 179.175781 51.929688 181.71875 C 51.929688 181.71875 57.671875 187.464844 57.671875 187.464844 C 58.449219 188.238281 59.710938 188.238281 60.484375 187.464844 C 61.261719 186.6875 61.261719 185.425781 60.484375 184.652344 Z M 43.847656 189.800781 C 45.695312 191.652344 47.742188 193.695312 49.589844 195.546875 C 53.511719 199.464844 60.644531 199.011719 65.484375 194.171875 C 69.351562 190.300781 74.097656 185.554688 77.96875 181.6875 C 82.808594 176.84375 83.261719 169.714844 79.34375 165.792969 C 77.492188 163.945312 75.449219 161.898438 73.601562 160.050781 C 69.679688 156.128906 62.550781 156.582031 57.707031 161.425781 C 54.960938 164.171875 51.773438 167.359375 48.769531 170.363281 C 47.996094 171.136719 47.996094 172.398438 48.769531 173.175781 C 49.546875 173.953125 50.808594 173.953125 51.582031 173.175781 C 54.585938 170.171875 57.773438 166.984375 60.519531 164.238281 C 63.664062 161.09375 68.242188 160.316406 70.789062 162.863281 C 70.789062 162.863281 76.53125 168.605469 76.53125 168.605469 C 79.078125 171.152344 78.300781 175.730469 75.15625 178.875 C 71.285156 182.742188 66.539062 187.488281 62.671875 191.355469 C 59.527344 194.503906 54.949219 195.28125 52.402344 192.734375 C 52.402344 192.734375 46.660156 186.992188 46.660156 186.992188 C 45.882812 186.214844 44.621094 186.214844 43.847656 186.992188 C 43.070312 187.765625 43.070312 189.027344 43.847656 189.800781 Z M 43.847656 189.800781 " fill-opacity="1" fill-rule="evenodd"/><g fill="#218a6b" fill-opacity="1"><g transform="translate(99.551585, 202.874987)"><g><path d="M 28.1875 -15.03125 C 28.1875 -10.175781 26.800781 -6.457031 24.03125 -3.875 C 21.269531 -1.289062 17.28125 0 12.0625 0 L 3.71875 0 L 3.71875 -29.484375 L 12.96875 -29.484375 C 17.78125 -29.484375 21.519531 -28.210938 24.1875 -25.671875 C 26.851562 -23.128906 28.1875 -19.582031 28.1875 -15.03125 Z M 21.6875 -14.859375 C 21.6875 -21.203125 18.890625 -24.375 13.296875 -24.375 L 9.96875 -24.375 L 9.96875 -5.171875 L 12.640625 -5.171875 C 18.671875 -5.171875 21.6875 -8.398438 21.6875 -14.859375 Z M 21.6875 -14.859375 "/></g></g></g><g fill="#218a6b" fill-opacity="1"><g transform="translate(130.129624, 202.874987)"><g><path d="M 12.5625 -18.59375 C 11.257812 -18.59375 10.238281 -18.179688 9.5 -17.359375 C 8.757812 -16.535156 8.335938 -15.363281 8.234375 -13.84375 L 16.859375 -13.84375 C 16.835938 -15.363281 16.441406 -16.535156 15.671875 -17.359375 C 14.910156 -18.179688 13.875 -18.59375 12.5625 -18.59375 Z M 13.4375 0.40625 C 9.800781 0.40625 6.960938 -0.59375 4.921875 -2.59375 C 2.878906 -4.601562 1.859375 -7.441406 1.859375 -11.109375 C 1.859375 -14.890625 2.800781 -17.8125 4.6875 -19.875 C 6.582031 -21.9375 9.195312 -22.96875 12.53125 -22.96875 C 15.71875 -22.96875 18.195312 -22.0625 19.96875 -20.25 C 21.75 -18.4375 22.640625 -15.929688 22.640625 -12.734375 L 22.640625 -9.75 L 8.09375 -9.75 C 8.15625 -8 8.671875 -6.628906 9.640625 -5.640625 C 10.609375 -4.660156 11.96875 -4.171875 13.71875 -4.171875 C 15.070312 -4.171875 16.351562 -4.3125 17.5625 -4.59375 C 18.78125 -4.875 20.046875 -5.328125 21.359375 -5.953125 L 21.359375 -1.1875 C 20.285156 -0.65625 19.132812 -0.257812 17.90625 0 C 16.6875 0.269531 15.195312 0.40625 13.4375 0.40625 Z M 13.4375 0.40625 "/></g></g></g><g fill="#218a6b" fill-opacity="1"><g transform="translate(154.535578, 202.874987)"><g><path d="M 24.046875 0 L 17.890625 0 L 17.890625 -13.171875 C 17.890625 -14.796875 17.597656 -16.015625 17.015625 -16.828125 C 16.441406 -17.640625 15.523438 -18.046875 14.265625 -18.046875 C 12.535156 -18.046875 11.285156 -17.472656 10.515625 -16.328125 C 9.753906 -15.179688 9.375 -13.273438 9.375 -10.609375 L 9.375 0 L 3.234375 0 L 3.234375 -22.546875 L 7.921875 -22.546875 L 8.75 -19.671875 L 9.09375 -19.671875 C 9.78125 -20.753906 10.722656 -21.570312 11.921875 -22.125 C 13.128906 -22.6875 14.5 -22.96875 16.03125 -22.96875 C 18.65625 -22.96875 20.644531 -22.257812 22 -20.84375 C 23.363281 -19.425781 24.046875 -17.378906 24.046875 -14.703125 Z M 24.046875 0 "/></g></g></g><g fill="#218a6b" fill-opacity="1"><g transform="translate(181.684682, 202.874987)"><g><path d="M 12.734375 -4.5 C 13.804688 -4.5 15.097656 -4.734375 16.609375 -5.203125 L 16.609375 -0.625 C 15.066406 0.0625 13.179688 0.40625 10.953125 0.40625 C 8.492188 0.40625 6.703125 -0.210938 5.578125 -1.453125 C 4.453125 -2.703125 3.890625 -4.570312 3.890625 -7.0625 L 3.890625 -17.9375 L 0.953125 -17.9375 L 0.953125 -20.53125 L 4.34375 -22.59375 L 6.109375 -27.359375 L 10.046875 -27.359375 L 10.046875 -22.546875 L 16.359375 -22.546875 L 16.359375 -17.9375 L 10.046875 -17.9375 L 10.046875 -7.0625 C 10.046875 -6.1875 10.289062 -5.539062 10.78125 -5.125 C 11.269531 -4.707031 11.921875 -4.5 12.734375 -4.5 Z M 12.734375 -4.5 "/></g></g></g><g fill="#218a6b" fill-opacity="1"><g transform="translate(199.616005, 202.874987)"><g><path d="M 17.546875 0 L 16.359375 -3.0625 L 16.203125 -3.0625 C 15.160156 -1.757812 14.09375 -0.851562 13 -0.34375 C 11.90625 0.15625 10.476562 0.40625 8.71875 0.40625 C 6.550781 0.40625 4.84375 -0.210938 3.59375 -1.453125 C 2.351562 -2.691406 1.734375 -4.453125 1.734375 -6.734375 C 1.734375 -9.128906 2.566406 -10.894531 4.234375 -12.03125 C 5.910156 -13.164062 8.441406 -13.796875 11.828125 -13.921875 L 15.734375 -14.046875 L 15.734375 -15.03125 C 15.734375 -17.3125 14.5625 -18.453125 12.21875 -18.453125 C 10.414062 -18.453125 8.300781 -17.910156 5.875 -16.828125 L 3.828125 -20.984375 C 6.421875 -22.335938 9.300781 -23.015625 12.46875 -23.015625 C 15.488281 -23.015625 17.804688 -22.351562 19.421875 -21.03125 C 21.035156 -19.71875 21.84375 -17.71875 21.84375 -15.03125 L 21.84375 0 Z M 15.734375 -10.453125 L 13.359375 -10.375 C 11.566406 -10.3125 10.234375 -9.984375 9.359375 -9.390625 C 8.484375 -8.804688 8.046875 -7.910156 8.046875 -6.703125 C 8.046875 -4.960938 9.039062 -4.09375 11.03125 -4.09375 C 12.457031 -4.09375 13.597656 -4.503906 14.453125 -5.328125 C 15.304688 -6.148438 15.734375 -7.238281 15.734375 -8.59375 Z M 15.734375 -10.453125 "/></g></g></g><g fill="#218a6b" fill-opacity="1"><g transform="translate(224.56656, 202.874987)"><g><path d="M 9.375 0 L 3.234375 0 L 3.234375 -31.390625 L 9.375 -31.390625 Z M 9.375 0 "/></g></g></g><g fill="#5dbd5e" fill-opacity="1"><g transform="translate(237.176576, 202.874987)"><g><path d="M 16.234375 -24.703125 C 13.878906 -24.703125 12.054688 -23.816406 10.765625 -22.046875 C 9.472656 -20.285156 8.828125 -17.828125 8.828125 -14.671875 C 8.828125 -8.085938 11.296875 -4.796875 16.234375 -4.796875 C 18.304688 -4.796875 20.816406 -5.316406 23.765625 -6.359375 L 23.765625 -1.109375 C 21.335938 -0.0976562 18.632812 0.40625 15.65625 0.40625 C 11.363281 0.40625 8.082031 -0.894531 5.8125 -3.5 C 3.539062 -6.101562 2.40625 -9.835938 2.40625 -14.703125 C 2.40625 -17.773438 2.960938 -20.460938 4.078125 -22.765625 C 5.191406 -25.066406 6.789062 -26.832031 8.875 -28.0625 C 10.96875 -29.300781 13.421875 -29.921875 16.234375 -29.921875 C 19.097656 -29.921875 21.976562 -29.226562 24.875 -27.84375 L 22.859375 -22.75 C 21.753906 -23.28125 20.644531 -23.738281 19.53125 -24.125 C 18.414062 -24.507812 17.316406 -24.703125 16.234375 -24.703125 Z M 16.234375 -24.703125 "/></g></g></g><g fill="#5dbd5e" fill-opacity="1"><g transform="translate(263.498706, 202.874987)"><g><path d="M 24.046875 0 L 17.890625 0 L 17.890625 -13.171875 C 17.890625 -16.421875 16.679688 -18.046875 14.265625 -18.046875 C 12.535156 -18.046875 11.285156 -17.460938 10.515625 -16.296875 C 9.753906 -15.128906 9.375 -13.234375 9.375 -10.609375 L 9.375 0 L 3.234375 0 L 3.234375 -31.390625 L 9.375 -31.390625 L 9.375 -25 C 9.375 -24.5 9.328125 -23.328125 9.234375 -21.484375 L 9.09375 -19.671875 L 9.421875 -19.671875 C 10.796875 -21.867188 12.972656 -22.96875 15.953125 -22.96875 C 18.609375 -22.96875 20.617188 -22.253906 21.984375 -20.828125 C 23.359375 -19.410156 24.046875 -17.367188 24.046875 -14.703125 Z M 24.046875 0 "/></g></g></g><g fill="#5dbd5e" fill-opacity="1"><g transform="translate(290.64781, 202.874987)"><g><path d="M 17.546875 0 L 16.359375 -3.0625 L 16.203125 -3.0625 C 15.160156 -1.757812 14.09375 -0.851562 13 -0.34375 C 11.90625 0.15625 10.476562 0.40625 8.71875 0.40625 C 6.550781 0.40625 4.84375 -0.210938 3.59375 -1.453125 C 2.351562 -2.691406 1.734375 -4.453125 1.734375 -6.734375 C 1.734375 -9.128906 2.566406 -10.894531 4.234375 -12.03125 C 5.910156 -13.164062 8.441406 -13.796875 11.828125 -13.921875 L 15.734375 -14.046875 L 15.734375 -15.03125 C 15.734375 -17.3125 14.5625 -18.453125 12.21875 -18.453125 C 10.414062 -18.453125 8.300781 -17.910156 5.875 -16.828125 L 3.828125 -20.984375 C 6.421875 -22.335938 9.300781 -23.015625 12.46875 -23.015625 C 15.488281 -23.015625 17.804688 -22.351562 19.421875 -21.03125 C 21.035156 -19.71875 21.84375 -17.71875 21.84375 -15.03125 L 21.84375 0 Z M 15.734375 -10.453125 L 13.359375 -10.375 C 11.566406 -10.3125 10.234375 -9.984375 9.359375 -9.390625 C 8.484375 -8.804688 8.046875 -7.910156 8.046875 -6.703125 C 8.046875 -4.960938 9.039062 -4.09375 11.03125 -4.09375 C 12.457031 -4.09375 13.597656 -4.503906 14.453125 -5.328125 C 15.304688 -6.148438 15.734375 -7.238281 15.734375 -8.59375 Z M 15.734375 -10.453125 "/></g></g></g><g fill="#5dbd5e" fill-opacity="1"><g transform="translate(315.598365, 202.874987)"><g><path d="M 2.96875 -28.375 C 2.96875 -30.382812 4.082031 -31.390625 6.3125 -31.390625 C 8.539062 -31.390625 9.65625 -30.382812 9.65625 -28.375 C 9.65625 -27.425781 9.375 -26.6875 8.8125 -26.15625 C 8.257812 -25.625 7.425781 -25.359375 6.3125 -25.359375 C 4.082031 -25.359375 2.96875 -26.363281 2.96875 -28.375 Z M 9.375 0 L 3.234375 0 L 3.234375 -22.546875 L 9.375 -22.546875 Z M 9.375 0 "/></g></g></g><g fill="#5dbd5e" fill-opacity="1"><g transform="translate(328.204752, 202.874987)"><g><path d="M 24.046875 0 L 17.890625 0 L 17.890625 -13.171875 C 17.890625 -14.796875 17.597656 -16.015625 17.015625 -16.828125 C 16.441406 -17.640625 15.523438 -18.046875 14.265625 -18.046875 C 12.535156 -18.046875 11.285156 -17.472656 10.515625 -16.328125 C 9.753906 -15.179688 9.375 -13.273438 9.375 -10.609375 L 9.375 0 L 3.234375 0 L 3.234375 -22.546875 L 7.921875 -22.546875 L 8.75 -19.671875 L 9.09375 -19.671875 C 9.78125 -20.753906 10.722656 -21.570312 11.921875 -22.125 C 13.128906 -22.6875 14.5 -22.96875 16.03125 -22.96875 C 18.65625 -22.96875 20.644531 -22.257812 22 -20.84375 C 23.363281 -19.425781 24.046875 -17.378906 24.046875 -14.703125 Z M 24.046875 0 "/></g></g></g></svg>