<svg xmlns="http://www.w3.org/2000/svg" xmlns:xlink="http://www.w3.org/1999/xlink" width="500" zoomAndPan="magnify" viewBox="0 0 375 374.999991" height="500" preserveAspectRatio="xMidYMid meet" version="1.0"><defs><clipPath id="84d536f43b"><path d="M 18.746094 16.964844 L 358.035156 16.964844 L 358.035156 356.253906 L 18.746094 356.253906 Z M 18.746094 16.964844 " clip-rule="nonzero"/></clipPath><clipPath id="94df441b14"><path d="M 188.390625 16.964844 C 94.699219 16.964844 18.746094 92.917969 18.746094 186.609375 C 18.746094 280.300781 94.699219 356.253906 188.390625 356.253906 C 282.082031 356.253906 358.035156 280.300781 358.035156 186.609375 C 358.035156 92.917969 282.082031 16.964844 188.390625 16.964844 Z M 188.390625 16.964844 " clip-rule="nonzero"/></clipPath><linearGradient x1="-0.000000649653" gradientTransform="matrix(1.325355, 0, 0, 1.325355, 18.744522, 16.96445)" y1="0" x2="256.000002" gradientUnits="userSpaceOnUse" y2="0" id="f46c99f1d7"><stop stop-opacity="1" stop-color="rgb(36.499023%, 74.099731%, 36.898804%)" offset="0"/><stop stop-opacity="1" stop-color="rgb(36.314392%, 73.942566%, 36.938477%)" offset="0.015625"/><stop stop-opacity="1" stop-color="rgb(35.945129%, 73.629761%, 37.019348%)" offset="0.03125"/><stop stop-opacity="1" stop-color="rgb(35.577393%, 73.316956%, 37.098694%)" offset="0.046875"/><stop stop-opacity="1" stop-color="rgb(35.20813%, 73.00415%, 37.17804%)" offset="0.0625"/><stop stop-opacity="1" stop-color="rgb(34.838867%, 72.692871%, 37.257385%)" offset="0.078125"/><stop stop-opacity="1" stop-color="rgb(34.47113%, 72.380066%, 37.336731%)" offset="0.09375"/><stop stop-opacity="1" stop-color="rgb(34.101868%, 72.067261%, 37.417603%)" offset="0.109375"/><stop stop-opacity="1" stop-color="rgb(33.732605%, 71.754456%, 37.496948%)" offset="0.125"/><stop stop-opacity="1" stop-color="rgb(33.364868%, 71.44165%, 37.576294%)" offset="0.140625"/><stop stop-opacity="1" stop-color="rgb(32.995605%, 71.130371%, 37.65564%)" offset="0.15625"/><stop stop-opacity="1" stop-color="rgb(32.627869%, 70.817566%, 37.736511%)" offset="0.171875"/><stop stop-opacity="1" stop-color="rgb(32.258606%, 70.504761%, 37.815857%)" offset="0.1875"/><stop stop-opacity="1" stop-color="rgb(31.889343%, 70.191956%, 37.895203%)" offset="0.203125"/><stop stop-opacity="1" stop-color="rgb(31.521606%, 69.87915%, 37.974548%)" offset="0.21875"/><stop stop-opacity="1" stop-color="rgb(31.152344%, 69.567871%, 38.053894%)" offset="0.234375"/><stop stop-opacity="1" stop-color="rgb(30.783081%, 69.255066%, 38.134766%)" offset="0.25"/><stop stop-opacity="1" stop-color="rgb(30.415344%, 68.942261%, 38.214111%)" offset="0.265625"/><stop stop-opacity="1" stop-color="rgb(30.046082%, 68.629456%, 38.293457%)" offset="0.28125"/><stop stop-opacity="1" stop-color="rgb(29.676819%, 68.31665%, 38.372803%)" offset="0.296875"/><stop stop-opacity="1" stop-color="rgb(29.309082%, 68.005371%, 38.453674%)" offset="0.3125"/><stop stop-opacity="1" stop-color="rgb(28.939819%, 67.692566%, 38.53302%)" offset="0.328125"/><stop stop-opacity="1" stop-color="rgb(28.570557%, 67.379761%, 38.612366%)" offset="0.34375"/><stop stop-opacity="1" stop-color="rgb(28.20282%, 67.066956%, 38.691711%)" offset="0.359375"/><stop stop-opacity="1" stop-color="rgb(27.833557%, 66.75415%, 38.771057%)" offset="0.375"/><stop stop-opacity="1" stop-color="rgb(27.464294%, 66.442871%, 38.851929%)" offset="0.390625"/><stop stop-opacity="1" stop-color="rgb(27.096558%, 66.130066%, 38.931274%)" offset="0.40625"/><stop stop-opacity="1" stop-color="rgb(26.727295%, 65.817261%, 39.01062%)" offset="0.421875"/><stop stop-opacity="1" stop-color="rgb(26.358032%, 65.504456%, 39.089966%)" offset="0.4375"/><stop stop-opacity="1" stop-color="rgb(25.990295%, 65.19165%, 39.170837%)" offset="0.453125"/><stop stop-opacity="1" stop-color="rgb(25.621033%, 64.880371%, 39.250183%)" offset="0.46875"/><stop stop-opacity="1" stop-color="rgb(25.25177%, 64.567566%, 39.329529%)" offset="0.484375"/><stop stop-opacity="1" stop-color="rgb(24.884033%, 64.254761%, 39.408875%)" offset="0.5"/><stop stop-opacity="1" stop-color="rgb(24.514771%, 63.941956%, 39.48822%)" offset="0.515625"/><stop stop-opacity="1" stop-color="rgb(24.145508%, 63.62915%, 39.569092%)" offset="0.53125"/><stop stop-opacity="1" stop-color="rgb(23.777771%, 63.317871%, 39.648438%)" offset="0.546875"/><stop stop-opacity="1" stop-color="rgb(23.408508%, 63.005066%, 39.727783%)" offset="0.5625"/><stop stop-opacity="1" stop-color="rgb(23.039246%, 62.692261%, 39.807129%)" offset="0.578125"/><stop stop-opacity="1" stop-color="rgb(22.671509%, 62.379456%, 39.888%)" offset="0.59375"/><stop stop-opacity="1" stop-color="rgb(22.302246%, 62.06665%, 39.967346%)" offset="0.609375"/><stop stop-opacity="1" stop-color="rgb(21.932983%, 61.755371%, 40.046692%)" offset="0.625"/><stop stop-opacity="1" stop-color="rgb(21.565247%, 61.442566%, 40.126038%)" offset="0.640625"/><stop stop-opacity="1" stop-color="rgb(21.195984%, 61.129761%, 40.205383%)" offset="0.65625"/><stop stop-opacity="1" stop-color="rgb(20.826721%, 60.816956%, 40.286255%)" offset="0.671875"/><stop stop-opacity="1" stop-color="rgb(20.458984%, 60.50415%, 40.365601%)" offset="0.6875"/><stop stop-opacity="1" stop-color="rgb(20.089722%, 60.192871%, 40.444946%)" offset="0.703125"/><stop stop-opacity="1" stop-color="rgb(19.720459%, 59.880066%, 40.524292%)" offset="0.71875"/><stop stop-opacity="1" stop-color="rgb(19.352722%, 59.567261%, 40.605164%)" offset="0.734375"/><stop stop-opacity="1" stop-color="rgb(18.983459%, 59.254456%, 40.684509%)" offset="0.75"/><stop stop-opacity="1" stop-color="rgb(18.614197%, 58.94165%, 40.763855%)" offset="0.765625"/><stop stop-opacity="1" stop-color="rgb(18.24646%, 58.630371%, 40.843201%)" offset="0.78125"/><stop stop-opacity="1" stop-color="rgb(17.877197%, 58.317566%, 40.922546%)" offset="0.796875"/><stop stop-opacity="1" stop-color="rgb(17.507935%, 58.004761%, 41.003418%)" offset="0.8125"/><stop stop-opacity="1" stop-color="rgb(17.140198%, 57.691956%, 41.082764%)" offset="0.828125"/><stop stop-opacity="1" stop-color="rgb(16.770935%, 57.37915%, 41.162109%)" offset="0.84375"/><stop stop-opacity="1" stop-color="rgb(16.401672%, 57.067871%, 41.241455%)" offset="0.859375"/><stop stop-opacity="1" stop-color="rgb(16.033936%, 56.755066%, 41.322327%)" offset="0.875"/><stop stop-opacity="1" stop-color="rgb(15.664673%, 56.442261%, 41.401672%)" offset="0.890625"/><stop stop-opacity="1" stop-color="rgb(15.29541%, 56.129456%, 41.481018%)" offset="0.90625"/><stop stop-opacity="1" stop-color="rgb(14.927673%, 55.81665%, 41.560364%)" offset="0.921875"/><stop stop-opacity="1" stop-color="rgb(14.558411%, 55.505371%, 41.641235%)" offset="0.9375"/><stop stop-opacity="1" stop-color="rgb(14.189148%, 55.192566%, 41.720581%)" offset="0.953125"/><stop stop-opacity="1" stop-color="rgb(13.821411%, 54.879761%, 41.799927%)" offset="0.96875"/><stop stop-opacity="1" stop-color="rgb(13.452148%, 54.566956%, 41.879272%)" offset="0.984375"/><stop stop-opacity="1" stop-color="rgb(13.082886%, 54.25415%, 41.958618%)" offset="1"/></linearGradient></defs><g clip-path="url(#84d536f43b)"><g clip-path="url(#94df441b14)"><path fill="url(#f46c99f1d7)" d="M 18.746094 16.964844 L 18.746094 356.253906 L 358.035156 356.253906 L 358.035156 16.964844 Z M 18.746094 16.964844 " fill-rule="nonzero"/></g></g><path fill="#ffffff" d="M 229.441406 173.320312 C 220.21875 164.09375 210.019531 153.898438 200.792969 144.671875 C 181.242188 125.117188 145.667969 127.390625 121.523438 151.535156 C 102.226562 170.832031 78.546875 194.511719 59.253906 213.804688 C 35.097656 237.960938 32.835938 273.523438 52.386719 293.074219 C 61.613281 302.300781 71.8125 312.5 81.039062 321.726562 C 100.589844 341.277344 136.152344 339.015625 160.308594 314.859375 C 174 301.171875 189.902344 285.269531 204.878906 270.289062 C 208.75 266.421875 208.75 260.132812 204.878906 256.261719 C 201.011719 252.382812 194.722656 252.382812 190.855469 256.261719 C 175.875 271.230469 159.972656 287.144531 146.28125 300.832031 C 130.597656 316.515625 107.761719 320.394531 95.066406 307.699219 C 95.066406 307.699219 66.414062 279.050781 66.414062 279.050781 C 53.71875 266.351562 57.597656 243.515625 73.28125 227.832031 C 92.574219 208.546875 116.253906 184.859375 135.550781 165.574219 C 151.234375 149.878906 174.070312 146 186.765625 158.699219 C 186.765625 158.699219 215.414062 187.347656 215.414062 187.347656 C 219.285156 191.214844 225.574219 191.214844 229.441406 187.347656 C 233.3125 183.480469 233.3125 177.1875 229.441406 173.320312 Z M 146.449219 199.011719 C 155.675781 208.238281 165.875 218.4375 175.101562 227.664062 C 194.652344 247.214844 230.226562 244.945312 254.371094 220.796875 C 273.667969 201.503906 297.347656 177.824219 316.640625 158.53125 C 340.796875 134.375 343.058594 98.808594 323.503906 79.257812 C 314.28125 70.03125 304.082031 59.835938 294.855469 50.609375 C 275.304688 31.054688 239.738281 33.316406 215.585938 57.472656 C 201.894531 71.164062 185.992188 87.066406 171.011719 102.042969 C 167.144531 105.914062 167.144531 112.203125 171.011719 116.070312 C 174.882812 119.949219 181.171875 119.949219 185.039062 116.070312 C 200.019531 101.101562 215.921875 85.191406 229.613281 71.5 C 245.296875 55.816406 268.132812 51.9375 280.828125 64.636719 C 280.828125 64.636719 309.476562 93.285156 309.476562 93.285156 C 322.175781 105.984375 318.296875 128.820312 302.613281 144.503906 C 283.320312 163.789062 259.640625 187.476562 240.34375 206.761719 C 224.660156 222.453125 201.824219 226.332031 189.128906 213.636719 C 189.128906 213.636719 160.476562 184.988281 160.476562 184.988281 C 156.609375 181.117188 150.320312 181.117188 146.449219 184.988281 C 142.582031 188.855469 142.582031 195.144531 146.449219 199.011719 Z M 146.449219 199.011719 " fill-opacity="1" fill-rule="evenodd"/></svg>